<svg width="30" height="30" viewBox="0 0 30 30" fill="none" xmlns="http://www.w3.org/2000/svg">
<path d="M20.1268 18.2518H19.1393L18.7893 17.9143C19.5705 17.0068 20.1414 15.9378 20.4612 14.7838C20.7811 13.6299 20.8419 12.4195 20.6393 11.2393C20.0518 7.7643 17.1518 4.9893 13.6518 4.5643C12.4213 4.40863 11.1715 4.53651 9.99808 4.93816C8.82463 5.33981 7.7586 6.00457 6.88159 6.88159C6.00457 7.75861 5.33981 8.82463 4.93816 9.99808C4.53651 11.1715 4.40863 12.4213 4.5643 13.6518C4.9893 17.1518 7.7643 20.0518 11.2393 20.6393C12.4195 20.8419 13.6299 20.7811 14.7838 20.4612C15.9378 20.1414 17.0068 19.5705 17.9143 18.7893L18.2518 19.1393V20.1268L23.5643 25.4393C24.0768 25.9518 24.9143 25.9518 25.4268 25.4393C25.9393 24.9268 25.9393 24.0893 25.4268 23.5768L20.1268 18.2518ZM12.6268 18.2518C9.5143 18.2518 7.0018 15.7393 7.0018 12.6268C7.0018 9.5143 9.5143 7.0018 12.6268 7.0018C15.7393 7.0018 18.2518 9.5143 18.2518 12.6268C18.2518 15.7393 15.7393 18.2518 12.6268 18.2518Z" fill="none"/>
</svg>