<svg width="66" height="47" viewBox="0 0 66 47" fill="none" xmlns="http://www.w3.org/2000/svg">
<path d="M64.3491 8.22242C63.9838 6.84693 63.2636 5.59155 62.2605 4.58201C61.2574 3.57247 60.0067 2.84422 58.6335 2.4702C53.5924 1.1102 33.378 1.1102 33.378 1.1102C33.378 1.1102 13.1635 1.1102 8.12242 2.4702C6.74929 2.84422 5.49854 3.57247 4.49544 4.58201C3.49234 5.59155 2.7721 6.84693 2.40687 8.22242C1.05576 13.2958 1.05576 23.8824 1.05576 23.8824C1.05576 23.8824 1.05576 34.4691 2.40687 39.5435C2.7721 40.919 3.49234 42.1744 4.49544 43.1839C5.49854 44.1935 6.74929 44.9217 8.12242 45.2958C13.1635 46.6546 33.378 46.6546 33.378 46.6546C33.378 46.6546 53.5924 46.6546 58.6335 45.2958C60.0067 44.9217 61.2574 44.1935 62.2605 43.1839C63.2636 42.1744 63.9838 40.919 64.3491 39.5435C65.7002 34.4691 65.7002 23.8824 65.7002 23.8824C65.7002 23.8824 65.7002 13.2958 64.3491 8.22242Z" fill="#EA5A47"/>
<path d="M26.5208 32.5752L43.4163 22.9641L26.5208 13.353V32.5752Z" fill="white"/>
<path d="M64.3491 8.22242C63.9838 6.84693 63.2636 5.59155 62.2605 4.58201C61.2574 3.57247 60.0067 2.84422 58.6335 2.4702C53.5924 1.1102 33.378 1.1102 33.378 1.1102C33.378 1.1102 13.1635 1.1102 8.12242 2.4702C6.74929 2.84422 5.49854 3.57247 4.49544 4.58201C3.49234 5.59155 2.7721 6.84693 2.40687 8.22242C1.05576 13.2958 1.05576 23.8824 1.05576 23.8824C1.05576 23.8824 1.05576 34.4691 2.40687 39.5435C2.7721 40.919 3.49234 42.1744 4.49544 43.1839C5.49854 44.1935 6.74929 44.9217 8.12242 45.2958C13.1635 46.6546 33.378 46.6546 33.378 46.6546C33.378 46.6546 53.5924 46.6546 58.6335 45.2958C60.0067 44.9217 61.2574 44.1935 62.2605 43.1839C63.2636 42.1744 63.9838 40.919 64.3491 39.5435C65.7002 34.4691 65.7002 23.8824 65.7002 23.8824C65.7002 23.8824 65.7002 13.2958 64.3491 8.22242Z" stroke="black" stroke-width="0.5" stroke-miterlimit="10"/>
<path d="M26.7669 33.4935L43.6624 23.8824L26.7669 14.2713V33.4935Z" stroke="black" stroke-width="0.5" stroke-miterlimit="10" stroke-linecap="round" stroke-linejoin="round"/>
</svg>
